<svg xmlns="http://www.w3.org/2000/svg" xmlns:xlink="http://www.w3.org/1999/xlink" width="800" zoomAndPan="magnify" viewBox="0 0 600 599.999999" height="800" preserveAspectRatio="xMidYMid meet" version="1.2"><defs><clipPath id="2ed1f27ba5"><path d="M 73.753906 124 L 526.003906 124 L 526.003906 476.777344 L 73.753906 476.777344 Z M 73.753906 124 "/></clipPath></defs><g id="6a9c3f6063"><rect x="0" width="600" y="0" height="599.999999" style="fill:#ffffff;fill-opacity:1;stroke:none;"/><rect x="0" width="600" y="0" height="599.999999" style="fill:#5ce1e6;fill-opacity:1;stroke:none;"/><g clip-rule="nonzero" clip-path="url(#2ed1f27ba5)"><path style=" stroke:none;fill-rule:nonzero;fill:#000000;fill-opacity:1;" d="M 304.84375 207.0625 C 303.851562 207.0625 302.609375 207.0625 301.617188 207.0625 C 276.792969 207.0625 253.460938 216.757812 236.085938 234.160156 C 218.464844 251.804688 209.03125 274.921875 209.03125 299.78125 C 209.03125 324.636719 218.710938 348.003906 236.085938 365.402344 C 242.292969 371.617188 249.242188 376.835938 256.6875 380.8125 C 171.054688 354.714844 145.238281 295.804688 145.238281 295.804688 C 145.238281 295.804688 217.222656 184.941406 378.8125 201.597656 L 387.746094 176.738281 C 387.746094 176.738281 387.5 176.738281 387.5 176.738281 L 406.859375 124.042969 L 379.308594 175.496094 C 209.28125 152.875 73.753906 296.796875 73.753906 296.796875 C 73.753906 296.796875 168.574219 397.714844 296.652344 392.746094 C 298.390625 392.746094 299.878906 392.992188 301.617188 392.992188 C 326.4375 392.992188 349.769531 383.296875 367.144531 365.898438 C 384.769531 348.25 394.199219 325.132812 394.199219 300.277344 C 394.199219 275.421875 384.519531 252.054688 367.144531 234.65625 C 362.179688 229.683594 356.96875 225.457031 351.257812 221.976562 C 430.191406 249.570312 454.269531 304.503906 454.269531 304.503906 C 454.269531 304.503906 382.285156 415.363281 220.699219 398.710938 L 211.761719 423.566406 C 211.761719 423.566406 212.011719 423.566406 212.011719 423.566406 L 192.648438 476.261719 L 220.203125 424.3125 C 390.476562 446.933594 526.003906 303.011719 526.003906 303.011719 C 526.003906 303.011719 431.929688 203.085938 304.84375 207.0625 Z M 301.863281 363.414062 C 266.867188 363.414062 238.320312 334.828125 238.320312 299.78125 C 238.320312 264.730469 266.867188 236.148438 301.863281 236.148438 C 336.863281 236.148438 365.40625 264.730469 365.40625 299.78125 C 365.40625 334.828125 336.863281 363.414062 301.863281 363.414062 Z M 301.863281 363.414062 "/></g><path style=" stroke:none;fill-rule:nonzero;fill:#000000;fill-opacity:1;" d="M 323.707031 299.78125 C 323.707031 300.5625 323.667969 301.339844 323.59375 302.117188 C 323.515625 302.898438 323.402344 303.667969 323.25 304.433594 C 323.097656 305.203125 322.90625 305.960938 322.679688 306.707031 C 322.453125 307.453125 322.191406 308.191406 321.894531 308.910156 C 321.59375 309.632812 321.261719 310.339844 320.894531 311.027344 C 320.527344 311.71875 320.125 312.386719 319.691406 313.039062 C 319.257812 313.6875 318.792969 314.3125 318.296875 314.917969 C 317.804688 315.523438 317.28125 316.101562 316.726562 316.652344 C 316.175781 317.207031 315.597656 317.730469 314.996094 318.226562 C 314.390625 318.722656 313.765625 319.1875 313.117188 319.621094 C 312.46875 320.054688 311.800781 320.457031 311.113281 320.824219 C 310.421875 321.191406 309.71875 321.527344 308.996094 321.824219 C 308.277344 322.125 307.542969 322.386719 306.796875 322.613281 C 306.050781 322.84375 305.292969 323.03125 304.527344 323.183594 C 303.761719 323.335938 302.992188 323.449219 302.214844 323.527344 C 301.4375 323.605469 300.660156 323.640625 299.878906 323.640625 C 299.097656 323.640625 298.320312 323.605469 297.542969 323.527344 C 296.765625 323.449219 295.996094 323.335938 295.230469 323.183594 C 294.464844 323.03125 293.707031 322.84375 292.960938 322.613281 C 292.214844 322.386719 291.480469 322.125 290.761719 321.824219 C 290.039062 321.527344 289.335938 321.191406 288.644531 320.824219 C 287.957031 320.457031 287.289062 320.054688 286.640625 319.621094 C 285.992188 319.1875 285.363281 318.722656 284.761719 318.226562 C 284.160156 317.730469 283.582031 317.207031 283.027344 316.652344 C 282.476562 316.101562 281.953125 315.523438 281.457031 314.917969 C 280.964844 314.3125 280.5 313.6875 280.066406 313.039062 C 279.632812 312.386719 279.230469 311.71875 278.863281 311.027344 C 278.496094 310.339844 278.164062 309.632812 277.863281 308.910156 C 277.566406 308.191406 277.300781 307.453125 277.074219 306.707031 C 276.847656 305.960938 276.660156 305.203125 276.507812 304.433594 C 276.355469 303.667969 276.242188 302.898438 276.164062 302.117188 C 276.089844 301.339844 276.050781 300.5625 276.050781 299.78125 C 276.050781 299 276.089844 298.21875 276.164062 297.441406 C 276.242188 296.664062 276.355469 295.890625 276.507812 295.125 C 276.660156 294.359375 276.847656 293.601562 277.074219 292.851562 C 277.300781 292.105469 277.566406 291.371094 277.863281 290.648438 C 278.164062 289.925781 278.496094 289.21875 278.863281 288.53125 C 279.230469 287.84375 279.632812 287.171875 280.066406 286.523438 C 280.5 285.871094 280.964844 285.246094 281.457031 284.640625 C 281.953125 284.039062 282.476562 283.460938 283.027344 282.90625 C 283.582031 282.355469 284.160156 281.828125 284.761719 281.335938 C 285.363281 280.839844 285.992188 280.375 286.640625 279.9375 C 287.289062 279.503906 287.957031 279.105469 288.644531 278.734375 C 289.335938 278.367188 290.039062 278.03125 290.761719 277.734375 C 291.480469 277.433594 292.214844 277.171875 292.960938 276.945312 C 293.707031 276.71875 294.464844 276.527344 295.230469 276.375 C 295.996094 276.222656 296.765625 276.109375 297.542969 276.03125 C 298.320312 275.957031 299.097656 275.917969 299.878906 275.917969 C 300.660156 275.917969 301.4375 275.957031 302.214844 276.03125 C 302.992188 276.109375 303.761719 276.222656 304.527344 276.375 C 305.292969 276.527344 306.050781 276.71875 306.796875 276.945312 C 307.542969 277.171875 308.277344 277.433594 308.996094 277.734375 C 309.71875 278.03125 310.421875 278.367188 311.113281 278.734375 C 311.800781 279.105469 312.46875 279.503906 313.117188 279.9375 C 313.765625 280.375 314.390625 280.839844 314.996094 281.335938 C 315.597656 281.828125 316.175781 282.355469 316.726562 282.90625 C 317.28125 283.460938 317.804688 284.039062 318.296875 284.640625 C 318.792969 285.246094 319.257812 285.871094 319.691406 286.523438 C 320.125 287.171875 320.527344 287.84375 320.894531 288.53125 C 321.261719 289.21875 321.59375 289.925781 321.894531 290.648438 C 322.191406 291.371094 322.453125 292.105469 322.679688 292.851562 C 322.90625 293.601562 323.097656 294.359375 323.25 295.125 C 323.402344 295.890625 323.515625 296.664062 323.59375 297.441406 C 323.667969 298.21875 323.707031 299 323.707031 299.78125 Z M 323.707031 299.78125 "/></g></svg>